<?xml version="1.0" encoding="utf-8"?>
<!-- Generator: Adobe Illustrator 24.0.3, SVG Export Plug-In . SVG Version: 6.00 Build 0)  -->
<svg version="1.1" id="Livello_1" xmlns="http://www.w3.org/2000/svg" xmlns:xlink="http://www.w3.org/1999/xlink" x="0px" y="0px"
	 viewBox="0 0 197 66" enable-background="new 0 0 197 66" xml:space="preserve">
<polygon fill-rule="evenodd" clip-rule="evenodd" fill="#E31D93" points="193.1,49.4 196.3,46.7 192.2,47 190.6,43.1 189.6,47.2 
	185.4,47.5 189,49.7 188,53.7 191.1,51 194.7,53.2 "/>
<polygon fill-rule="evenodd" clip-rule="evenodd" fill="#E31D93" points="44.4,60.1 47.6,57.4 43.4,57.7 41.9,53.8 40.9,57.9 
	36.7,58.2 40.3,60.4 39.3,64.4 42.4,61.7 45.9,63.9 "/>
<g>
	<path fill="#000F9F" d="M50.7,52.9l3.3-0.2l2.9,6.5l1.9-6.9l3.2-0.2l-3.5,11l-2.7,0.2L50.7,52.9z"/>
	<path fill="#000F9F" d="M66.1,51.8l2.9-0.2l0.7,10.6l-2.9,0.2L66.1,51.8z"/>
	<path fill="#000F9F" d="M78.9,61.7c-0.9,0.1-1.9,0-2.7-0.3c-0.9-0.2-1.7-0.6-2.4-1.2l1.5-2.1c1.1,0.8,2.3,1.1,3.5,1
		c0.4,0,0.7-0.1,0.9-0.3c0.2-0.1,0.3-0.3,0.3-0.6l0,0c0-0.1,0-0.2-0.1-0.3c-0.1-0.1-0.2-0.2-0.3-0.2c-0.1-0.1-0.3-0.1-0.6-0.2
		c-0.2-0.1-0.5-0.1-0.9-0.2c-0.6-0.1-1.1-0.2-1.6-0.3s-0.9-0.3-1.3-0.5s-0.7-0.5-0.9-0.9c-0.2-0.4-0.4-0.8-0.4-1.3l0,0
		c0-0.5,0-1,0.2-1.4c0.2-0.4,0.4-0.8,0.7-1.1c0.3-0.3,0.8-0.6,1.2-0.8c0.5-0.2,1.1-0.3,1.7-0.4c0.9-0.1,1.7,0,2.5,0.2
		c0.7,0.2,1.4,0.5,2,0.9l-1.3,2.2c-0.5-0.3-1-0.5-1.5-0.7s-1-0.2-1.5-0.2c-0.4,0-0.6,0.1-0.8,0.3c-0.2,0.1-0.2,0.3-0.2,0.5l0,0
		c0,0.1,0,0.2,0.1,0.3c0.1,0.1,0.2,0.2,0.3,0.2c0.1,0.1,0.3,0.1,0.6,0.2c0.2,0.1,0.5,0.1,0.9,0.2c0.6,0.1,1.2,0.2,1.7,0.3
		c0.5,0.1,0.9,0.3,1.3,0.6c0.4,0.2,0.6,0.5,0.9,0.9c0.2,0.3,0.3,0.8,0.4,1.3l0,0c0,0.5,0,1-0.2,1.5c-0.2,0.4-0.4,0.8-0.8,1.1
		c-0.4,0.3-0.8,0.6-1.3,0.8C80.1,61.5,79.5,61.7,78.9,61.7z"/>
	<path fill="#000F9F" d="M90.5,50l2.8-0.2l5.2,10.3l-3.1,0.2l-0.9-1.8l-4.1,0.3l-0.6,1.9L86.8,61L90.5,50z M93.5,56.3l-1.4-2.9
		l-1,3.1L93.5,56.3z"/>
	<path fill="#000F9F" d="M108.7,58c-0.9,1.1-1.9,1.7-3.2,1.8c-1.8,0.1-3.3-0.9-3.4-2.6l0,0c-0.1-1.3,0.7-2.4,2.2-3.1
		c-0.8-0.8-1.1-1.4-1.2-2.2l0,0c-0.1-1.3,0.9-2.5,2.5-2.6c1.4-0.1,2.5,0.9,2.6,2.1l0,0c0.1,1.3-0.8,2.2-2.2,2.8l2.5,2.2
		c0.4-0.7,0.8-1.5,1.1-2.3l1,0.4c-0.4,1-0.8,1.9-1.3,2.6l1.9,1.7l-0.8,0.7L108.7,58z M108,57.3l-2.9-2.6c-1.3,0.6-1.8,1.5-1.8,2.3
		l0,0c0.1,1.1,1,1.8,2.2,1.8C106.5,58.8,107.3,58.2,108,57.3z M107.3,51.6L107.3,51.6c-0.1-0.8-0.7-1.4-1.5-1.3
		c-0.9,0.1-1.5,0.7-1.4,1.6l0,0c0,0.6,0.3,1,1.1,1.8C106.7,53.1,107.4,52.4,107.3,51.6z"/>
	<path fill="#000F9F" d="M120.7,58.8c-0.8,0.1-1.5,0-2.2-0.3c-0.7-0.2-1.3-0.6-1.8-1s-1-1-1.3-1.7c-0.3-0.6-0.5-1.4-0.6-2.2l0,0
		c-0.1-0.8,0-1.5,0.3-2.2c0.2-0.7,0.6-1.3,1-1.8c0.5-0.5,1-1,1.7-1.3c0.7-0.3,1.4-0.5,2.2-0.6c0.5,0,1,0,1.5,0.1
		c0.5,0.1,0.9,0.2,1.2,0.4c0.4,0.2,0.7,0.4,1,0.6c0.3,0.2,0.6,0.5,0.9,0.8l-2.1,1.9c-0.3-0.4-0.7-0.6-1.1-0.8
		c-0.4-0.2-0.8-0.3-1.3-0.2c-0.4,0-0.7,0.1-1,0.3c-0.3,0.2-0.5,0.4-0.8,0.7c-0.2,0.3-0.4,0.6-0.5,0.9c-0.1,0.4-0.1,0.7-0.1,1.1l0,0
		c0,0.4,0.1,0.8,0.3,1.1s0.3,0.6,0.6,0.9c0.2,0.2,0.5,0.4,0.8,0.5c0.3,0.1,0.7,0.2,1,0.1c0.3,0,0.5-0.1,0.7-0.1
		c0.2-0.1,0.4-0.2,0.6-0.3c0.2-0.1,0.3-0.3,0.5-0.4c0.2-0.2,0.3-0.4,0.5-0.6l2.3,1.4c-0.2,0.4-0.5,0.7-0.8,1c-0.3,0.3-0.6,0.6-1,0.8
		c-0.4,0.2-0.8,0.4-1.2,0.6C121.8,58.7,121.3,58.8,120.7,58.8z"/>
	<path fill="#000F9F" d="M135,57.8c-0.8,0.1-1.6,0-2.3-0.3c-0.7-0.2-1.3-0.6-1.9-1c-0.5-0.5-1-1-1.3-1.7c-0.3-0.6-0.5-1.3-0.6-2.1
		l0,0c-0.1-0.8,0-1.5,0.3-2.2c0.2-0.7,0.6-1.3,1.1-1.8c0.5-0.5,1.1-1,1.7-1.3c0.7-0.3,1.4-0.5,2.2-0.6c0.8-0.1,1.6,0,2.3,0.3
		c0.7,0.2,1.3,0.6,1.9,1c0.5,0.5,1,1,1.3,1.7c0.3,0.6,0.5,1.3,0.6,2.1l0,0c0.1,0.8,0,1.5-0.3,2.2c-0.2,0.7-0.6,1.3-1.1,1.8
		c-0.5,0.5-1.1,1-1.7,1.3C136.5,57.6,135.8,57.8,135,57.8z M134.8,55.2c0.4,0,0.8-0.1,1.1-0.3c0.3-0.2,0.6-0.4,0.8-0.7
		c0.2-0.3,0.4-0.6,0.5-0.9c0.1-0.4,0.1-0.7,0.1-1.1l0,0c0-0.4-0.1-0.7-0.3-1.1c-0.2-0.3-0.4-0.6-0.6-0.9c-0.3-0.2-0.6-0.4-0.9-0.6
		s-0.7-0.2-1.1-0.2c-0.4,0-0.8,0.1-1.1,0.3c-0.3,0.2-0.6,0.4-0.8,0.7c-0.2,0.3-0.4,0.6-0.5,0.9c-0.1,0.4-0.1,0.7-0.1,1.1l0,0
		c0,0.4,0.1,0.7,0.3,1.1c0.2,0.3,0.4,0.6,0.6,0.9c0.3,0.2,0.6,0.4,0.9,0.6C134,55.1,134.4,55.2,134.8,55.2z"/>
	<path fill="#000F9F" d="M143.6,46.4l3.3-0.2l2.9,6.5l1.9-6.9l3.2-0.2l-3.5,11l-2.7,0.2L143.6,46.4z"/>
	<path fill="#000F9F" d="M159,45.3l8.5-0.6l0.2,2.5l-5.6,0.4l0.1,1.6l5.1-0.4l0.2,2.3l-5.1,0.4l0.1,1.7l5.7-0.4l0.2,2.5l-8.6,0.6
		L159,45.3z"/>
	<path fill="#000F9F" d="M172.1,44.4l5-0.3c0.8-0.1,1.5,0,2.1,0.2s1.1,0.4,1.4,0.8c0.7,0.6,1,1.4,1.1,2.4l0,0
		c0.1,0.8-0.1,1.5-0.4,2.1c-0.4,0.6-0.9,1-1.5,1.3l2.8,3.5l-3.4,0.2l-2.4-3.1l0,0l-1.3,0.1l0.2,3.2l-2.9,0.2L172.1,44.4z
		 M177.3,49.1c0.5,0,0.9-0.2,1.1-0.4c0.3-0.2,0.4-0.6,0.3-0.9l0,0c0-0.4-0.2-0.7-0.5-0.9c-0.3-0.2-0.7-0.3-1.2-0.2l-1.9,0.1l0.2,2.5
		L177.3,49.1z"/>
</g>
<g>
	<g>
		<path fill="#000F9F" d="M168.9,14.9c-0.9-0.9-2.1-1.2-3.4-1.2c-1.3,0.1-2.6,0.5-3.9,1.3c-1.3,0.8-2.8,2.1-4.5,4.1
			c-1,1.1-1.9,2.4-2.7,3.8c0.6-2.5,1.7-5.9,3.1-10.2c0.7-2.2,1.5-4,3.1-7.9c0.8-2-0.6-4.4-2.6-5v0c-1.9,3.5-3.3,7.4-4.8,12.1
			c-2.7,8.2-4.4,15.2-5.1,20.8l-0.1,0.4l4.3,1.4l0.2-0.5c1.3-4.3,3-8,5-10.7c1.9-2.7,3.7-4.1,5.2-4.2c0.6,0,1.1,0.1,1.5,0.5
			c0.4,0.4,0.6,0.8,0.7,1.5c0.2,2.3-0.6,4.7-2.1,7.1c-1.5,2.4-3.3,3.7-5.4,3.9c-0.3,0-0.7,0-1.2-0.1l-0.4-0.1l-1.5,3.4l0.6,0.2
			c0.8,0.3,1.6,0.4,2.4,0.4c0.2,0,0.4,0,0.6,0c3.4-0.2,6.5-2.4,9.1-6.4c2.6-4,3.8-7.8,3.6-11.2C170.4,16.9,169.8,15.8,168.9,14.9z"
			/>
		<path fill="#000F9F" d="M196.6,21.8c0,0-1.2,3.1-4.5,5.7c-0.1,0.1-0.5,0.3-0.6,0.4c0,0-0.1,0-0.5,0.1c-0.2,0-0.4-0.1-0.7-0.3
			c-0.3-0.2-0.4-0.5-0.4-0.9c-0.1-0.8,0.4-2.9,2.7-8.6l0.2-0.4l-3.3-1.7l-0.2,0.5c-1.3,3.1-3.1,5.9-5.3,8.3c-2.1,2.3-4,3.6-5.4,3.7
			c-1,0.1-2.1-0.2-2.3-2.6c-0.1-2,0.9-4.1,3.2-6.3c2.3-2.3,5-3.9,8.2-4.8l2.7-0.8c0.7-0.2,1.1-0.9,0.9-1.6c-0.1-0.6-0.7-1.1-1.3-1.1
			l-0.5,0c-3.1,0.3-6.2,1.3-9.2,3.1c-3,1.8-5.4,4.1-7.2,6.7c-1.8,2.7-2.7,5.4-2.5,8.1c0.1,1.5,0.6,2.7,1.4,3.5
			c0.8,0.7,1.8,1.1,3.1,1.1c0.2,0,0.3,0,0.5,0c1.4-0.1,2.9-0.6,4.4-1.4c1.4-0.8,3.1-2.3,4.9-4.5l0.5-0.6c-0.1,0.7-0.1,1.3-0.1,1.9
			c0.2,2.5,1.5,3.8,4,3.6c1.2-0.1,2.7-0.6,4.1-1.8c1.4-1.1,2.2-2.6,2.5-3.6C197,24.5,196.6,21.8,196.6,21.8z"/>
		<path fill="#000F9F" d="M145.7,27.5c-0.7,1.3-1.8,2.4-1.8,2.5l-0.4,0.4c-0.2,0.2-0.3,0.3-0.3,0.3c-0.1,0.1-0.3,0.2-0.5,0.3
			c-0.1,0.1-0.2,0.1-0.4,0.2c-0.1,0-0.3,0.1-0.7,0.1c-0.3,0-0.5-0.2-0.7-0.4c-0.3-0.3-0.4-0.7-0.5-1.4c0-0.4,0.2-1.8,1.8-7
			c1.7-5.4,2-6.3,2-6.5l0.1-0.4l-3.8-1.4l-0.2,0.5c-1.9,5.4-3.8,9.5-5.7,12.3c-2.3,3.3-3.9,4.1-4.7,4.1c-0.5,0-1-0.1-1.4-0.5
			c-0.4-0.3-0.6-0.8-0.7-1.5c0-0.5,0.1-1.7,0.8-4.6c0.6-2.3,1.5-4.7,2.8-7.2l0.3-0.5l-3.6-1.3l-0.2,0.2c-0.5,0.5-1.4,1.7-3.3,7.1
			c-1.4,4-2,7.3-1.9,9.8c0.3,3.8,2,4.6,3.6,4.6c0.1,0,0.2,0,0.3,0c1.5-0.1,3.1-1,5.1-2.8c1.4-1.2,2.7-2.8,3.9-4.7
			c-0.1,0.9-0.1,1.7,0,2.3c0.1,1.3,0.5,2.4,1.3,3.2c0.8,0.8,1.8,1.2,3,1.1c1.2-0.1,2.5-0.7,3.8-2c1.3-1.2,2.2-2.6,2.8-4.3
			c0,0,1-2.6,0.1-5.4C146.9,25,146.4,26.3,145.7,27.5z"/>
	</g>
	<g>
		<path fill="#E31D93" d="M49.1,25.9l-0.2-0.3L45.2,27l0.3,0.5c0.7,1.3,1.2,2.8,1.3,4.5c0.1,1.6-0.2,3.1-0.9,4.4
			c-0.7,1.2-1.7,1.8-2.9,1.9c-1.3,0.1-2.3-0.2-3-1c-0.7-0.8-1.2-1.9-1.3-3.4c-0.2-2.5,0.6-4.5,2.3-6.2c1.7-1.7,4-2.7,6.7-2.9
			l0.5-0.1c0.5-0.2,0.8-0.7,0.8-1.2c0-0.7-0.5-1.3-1.2-1.4l-0.4-0.1c-0.3,0-0.8,0-1.4,0c-3.5,0.2-6.5,1.9-9.1,4.9
			c-2.6,3-3.7,6.4-3.5,9.9c0.2,2.3,0.9,4,2.3,5.3c1.2,1.1,2.8,1.6,4.7,1.6c0.2,0,0.5,0,0.7,0c2.9-0.2,5.4-1.6,7.3-4.2
			c1.9-2.5,2.8-5.4,2.6-8.4C50.8,29.2,50.2,27.5,49.1,25.9z"/>
		<path fill="#E31D93" d="M75.5,30.3c0,0-0.5,1.4-1.2,2.6c-0.7,1.3-1.8,2.4-1.8,2.5l-0.4,0.4c-0.2,0.2-0.3,0.3-0.3,0.3
			c-0.1,0.1-0.3,0.2-0.5,0.3c-0.1,0.1-0.2,0.1-0.4,0.2c-0.1,0-0.3,0.1-0.7,0.1c-0.3,0-0.5-0.2-0.7-0.4c-0.3-0.3-0.4-0.7-0.5-1.4
			c0-0.4,0.2-1.8,1.8-7c1.7-5.4,2-6.3,2-6.5l0.1-0.4l-3.8-1.4L69.2,20c-1.9,5.4-3.8,9.5-5.7,12.3c-2.3,3.3-3.9,4.1-4.7,4.1
			c-0.5,0-1-0.1-1.4-0.5c-0.4-0.3-0.6-0.8-0.7-1.5c0-0.5,0.1-1.7,0.8-4.6c0.6-2.3,1.5-4.7,2.8-7.2l0.3-0.5L57,21l-0.2,0.2
			c-0.5,0.5-1.4,1.7-3.3,7.1c-1.4,4-2,7.3-1.9,9.8c0.3,3.8,2,4.6,3.6,4.6c0.1,0,0.2,0,0.3,0c1.5-0.1,3.1-1,5.1-2.8
			c1.4-1.2,2.7-2.8,3.9-4.7c-0.1,0.9-0.1,1.7,0,2.3c0.1,1.3,0.5,2.4,1.3,3.2c0.8,0.8,1.8,1.2,3,1.1c1.2-0.1,2.5-0.7,3.8-2
			c1.3-1.2,2.2-2.6,2.8-4.3C75.4,35.7,76.4,33,75.5,30.3z"/>
		<path fill="#E31D93" d="M93.9,23.2c-0.1-1.1-0.5-2-1.2-2.7c-0.7-0.7-1.6-1-2.7-0.9c-2.2,0.2-4.6,2.6-7.2,7.4
			c0.2-1.1,0.3-1.9,0.4-2.6c0.1-1.3,0.2-3.2,0.1-5.6l0-0.7l-4,1.4l0,0.4c0.3,4.3,0.1,7.9-0.7,10.7c-0.2,0.6-0.8,2.4-2.9,8.2
			l-0.2,0.5l4.1,1.5l0.2-0.4c0.6-1.3,1.5-3.3,2.6-6.4c1.1-2.9,2.1-5.1,3-6.5c0.8-1.3,1.6-2,2.5-2c0.4,0,0.7,0,0.9,0.2
			c0.2,0.1,0.3,0.4,0.3,0.7c0,0.3,0,1.7-0.5,3.2c-0.6,1.7-2.2,4.2-2.2,4.2s3.4-1.3,5.1-3.5C93.3,27.9,94.1,25.3,93.9,23.2z"/>
	</g>
	<path fill="#E31D93" d="M195.1,35L57.8,44.3c-11.2,0.6-27.6,1-29.7,0.8c-0.3,0-0.6-0.1-0.8-0.1c1.8-6.8,4.6-14.6,6.6-19.6
		c3.1-4.9,4.5-8.5,4.4-11c0-0.7-0.3-1.2-0.7-1.6c-0.4-0.4-1-0.6-1.7-0.5c-0.7,0.1-1.4,0.6-2,1.6c-0.5,0.9-1.3,2.6-2.2,5.2
		C29.4,25.3,27.2,30,24.9,33c-2.2,2.9-4.6,4.5-7,4.7c-1.2,0.1-2-0.2-2.6-0.9c-0.6-0.7-1-1.8-1.1-3.4c-0.3-5,2.4-11.4,8.1-19.1
		c1.3-1.8,1.1-4.3-0.4-5.9l-0.3,0.3c-3.7,3.4-6.9,8-9.5,13.7C9.3,28,8.1,32.6,8.3,35.9c0.2,2.4,0.9,4.3,2.1,5.5
		c1.2,1.3,2.9,1.9,5,1.8c1.2-0.1,2.4-0.4,3.6-0.9c1.8-0.8,4-2.6,6.9-5.4c-0.2,0.6-0.4,1.3-0.6,2.2c-0.3,1.2-0.9,2.8-1.4,4.1
		c-0.3,0.9-0.6,1.6-0.7,2.1l-1.3,0c-6.1,0.4-11.4,2-15.7,4.6c-4.4,2.7-6.5,5.8-6.2,9.3c0.1,1.9,1.1,3.5,2.7,4.7
		c1.4,1,3.2,1.5,5.1,1.5c0.3,0,0.5,0,0.8,0c4.3-0.3,8-1.9,10.9-4.8c2.8-2.8,5.1-6.8,6.9-12.1c1.6,0.1,16.4,0,24.7-0.8l144.3-9.8
		c0.8-0.1,1.4-0.8,1.4-1.6C196.6,35.6,195.9,34.9,195.1,35z M17.8,56.4c-2,2.4-4.4,3.7-7.2,3.9c-1.1,0.1-2.1-0.1-2.9-0.6
		c-0.7-0.5-1.1-1.1-1.2-2c-0.1-2.1,1.3-4.1,4.3-5.9c2.9-1.7,6.7-2.8,11.1-3.2C21.1,51.6,19.7,54.2,17.8,56.4z"/>
	<path fill="#000F9F" d="M118.7,25.1c-1.1,5.7-4,8.7-8.7,9c-2.6,0.2-4.7-0.4-6.1-1.8c-1.5-1.4-2.4-3.4-2.5-5.9
		c-0.3-7.8,6.1-14.2,8.5-16c2.5-1.9,4.8-2.9,6.9-3c0.6,0,1.2,0.1,1.6,0.4c0.4,0.3,0.6,0.7,0.6,1.2c0.1,1.8-0.9,3.5-3,5
		c-1.3,0.9-2.8,1.6-4.4,2.1c-1.8,0.5-3.2,2-3.7,3.8l0,0c0,0,0,0,0,0c4.7-0.2,8.8-1.7,12.2-4.6c3.3-2.7,4.9-5.7,4.7-8.6
		c-0.1-1.4-0.6-2.5-1.5-3.3c-0.9-0.8-2.1-1.1-3.6-1v0c-2.9,0.2-6.4,1.7-10.4,4.5c-3.8,2.6-6.7,5.5-8.7,8.5c0,0-4.7,6.7-4.7,13.9
		c0,3.5,1.5,6.1,3.8,7.8c2.1,1.5,4.3,2.3,6.5,2.3c0.2,0,0.5,0,0.7,0c4.6-0.3,8.3-1.9,11-4.8c2.7-2.8,4.1-6.1,4.3-9.6l0-0.6l-3.5,0.2
		L118.7,25.1z"/>
</g>
</svg>
