<?xml version="1.0" encoding="utf-8"?>
<!-- Generator: Adobe Illustrator 27.1.1, SVG Export Plug-In . SVG Version: 6.00 Build 0)  -->
<svg version="1.1" id="Layer_1" xmlns="http://www.w3.org/2000/svg" xmlns:xlink="http://www.w3.org/1999/xlink" x="0px" y="0px"
	 viewBox="0 0 2383.92 1684.08" style="enable-background:new 0 0 2383.92 1684.08;" xml:space="preserve">
<style type="text/css">
	.st0{fill:#004A87;}
	.st1{fill:#DA281C;}
	.st2{fill:#FFFFFF;}
</style>
<g>
	<g>
		<g>
			<path class="st0" d="M1043.64,823.43h-41.36l-54.21-166.84h37.86l37.15,117.3h0.47l37.62-117.3h37.85L1043.64,823.43z"/>
			<path class="st0" d="M1113.27,656.59h36.69v166.84h-36.69V656.59z"/>
			<path class="st0" d="M1207.21,768.05c0,22.2,17.29,30.84,36.92,30.84c12.85,0,32.48-3.74,32.48-20.8
				c0-18.23-25.24-20.8-49.54-27.57c-24.77-6.08-49.77-16.59-49.77-47.44c0-34.35,32.25-50.47,62.39-50.47
				c34.82,0,66.83,15.19,66.83,53.74H1271c-1.17-19.86-15.19-25.24-32.95-25.24c-11.68,0-25.24,4.91-25.24,18.93
				c0,12.85,7.95,14.72,49.77,25.24c12.38,2.8,49.54,10.98,49.54,48.6c0,30.61-23.83,53.51-69.4,53.51
				c-36.92,0-71.74-18.23-71.04-59.35H1207.21z"/>
			<path class="st0" d="M1379.43,656.59h37.62l62.39,166.84h-38.09l-12.62-37.15h-62.39l-13.08,37.15h-37.15L1379.43,656.59z
				 M1375.92,758.94h43.23l-21.03-61.22h-0.47L1375.92,758.94z"/>
			<path class="st1" d="M1022.84,972.11h-69.17v-30.38l71.04-95.34h29.68v98.38h21.73v27.34h-21.73v37.86h-31.55V972.11z
				 M1022.84,887.99h-0.7l-42.29,56.78h43V887.99z"/>
			<path class="st0" d="M1207.21,899.21c-2.57-16.59-18.46-29.21-36.45-29.21c-32.95,0-45.33,28.04-45.33,57.25
				c0,27.81,12.38,55.85,45.33,55.85c22.43,0,35.05-15.19,37.85-37.39h35.52c-3.74,41.83-32.25,68.23-73.37,68.23
				c-51.41,0-82.02-38.56-82.02-86.69c0-49.54,30.61-88.09,82.02-88.09c36.45,0,67.53,21.5,71.97,60.05H1207.21z"/>
			<path class="st0" d="M1410.74,946.87c0,45.1-26.64,67.06-71.27,67.06c-45.1,0-71.04-21.5-71.04-67.06V843.12h36.69v103.75
				c0,18.23,4.67,36.22,34.35,36.22c26.17,0,34.58-11.22,34.58-36.22V843.12h36.69V946.87z"/>
			<path class="st0" d="M1442.29,843.12h78.51c31.78,0,53.28,10.28,53.28,41.36c0,16.59-7.95,27.57-22.67,34.82
				c20.56,5.84,30.61,21.5,30.61,42.29c0,33.88-28.74,48.37-58.89,48.37h-80.85V843.12z M1478.98,910.65h37.15
				c13.09,0,22.43-5.84,22.43-19.86c0-15.66-12.15-19.16-25.24-19.16h-34.35V910.65z M1478.98,981.46h39.26
				c14.25,0,27.11-4.67,27.11-21.97c0-17.06-10.51-23.83-26.4-23.83h-39.96V981.46z"/>
			<path class="st0" d="M1652.37,843.12h37.62l62.39,166.84h-38.09l-12.62-37.15h-62.39l-13.08,37.15h-37.15L1652.37,843.12z
				 M1648.86,945.47h43.23l-21.03-61.22h-0.47L1648.86,945.47z"/>
		</g>
	</g>
	<g>
		<path class="st0" d="M854.25,681.29h-8.13v-15.76c0-12.75-10.41-22.6-22.54-22.6c-1.65,0-3.32,0.18-5.01,0.56L652.2,680.98
			c-0.41,0.09-0.81,0.21-1.21,0.33c-10.76,0.1-19.46,8.84-19.46,19.63v270.73l0,0.01h0v17.05c0,10.84,8.79,19.63,19.63,19.63H796.4
			h27.33h31.72c10.18,0,18.44-8.25,18.44-18.44V878.02v-9.15V700.93C873.89,690.08,865.09,681.29,854.25,681.29z M710.3,681.29
			l111.13-25.03c0.71-0.16,1.43-0.24,2.14-0.24h0c5.22,0,9.46,4.27,9.46,9.52v15.76H710.3z"/>
		<path class="st2" d="M753.58,732.84c-43.15,0-78.25,35.1-78.25,78.25c0,43.15,35.1,78.25,78.25,78.25s78.25-35.1,78.25-78.25
			C831.83,767.95,796.73,732.84,753.58,732.84z M819.83,806.65h-21.16c-0.61-18.41-4.96-35.63-12.42-48.88
			c-1.36-2.41-2.79-4.64-4.29-6.7C803.15,761.13,818.2,782.08,819.83,806.65z M762.3,876.92c-1.41,0.19-2.84,0.33-4.28,0.42v-61.8
			h31.75c-0.59,16.88-4.53,32.55-11.27,44.52C773.84,868.33,768.28,874.08,762.3,876.92z M728.66,860.06
			c-6.73-11.96-10.68-27.63-11.27-44.52h31.75v61.8c-1.44-0.1-2.87-0.24-4.28-0.42C738.88,874.08,733.31,868.33,728.66,860.06z
			 M744.85,745.27c1.41-0.19,2.84-0.33,4.28-0.42v61.8h-31.75c0.59-16.88,4.53-32.55,11.27-44.52
			C733.31,753.86,738.88,748.11,744.85,745.27z M758.03,806.65v-61.8c1.44,0.1,2.87,0.24,4.28,0.42c5.97,2.85,11.54,8.59,16.2,16.87
			c6.73,11.96,10.68,27.63,11.27,44.52H758.03z M725.2,751.07c-1.5,2.06-2.94,4.29-4.29,6.7c-7.46,13.25-11.81,30.47-12.42,48.88
			h-21.16C688.96,782.08,704.01,761.13,725.2,751.07z M687.33,815.54h21.16c0.61,18.41,4.96,35.63,12.42,48.88
			c1.36,2.41,2.79,4.64,4.29,6.7C704.01,861.06,688.96,840.11,687.33,815.54z M781.96,871.12c1.5-2.06,2.94-4.29,4.29-6.7
			c7.46-13.25,11.81-30.47,12.42-48.88h21.16C818.2,840.11,803.15,861.06,781.96,871.12z"/>
		<g>
			<path class="st2" d="M807.2,936.85H698.22c-3.75,0-6.79-3.04-6.79-6.79l0,0c0-3.75,3.04-6.79,6.79-6.79H807.2
				c3.75,0,6.79,3.04,6.79,6.79l0,0C813.98,933.81,810.95,936.85,807.2,936.85z"/>
			<path class="st2" d="M829.76,962.86h-154.1c-3.75,0-6.79-3.04-6.79-6.79l0,0c0-3.75,3.04-6.79,6.79-6.79h154.1
				c3.75,0,6.79,3.04,6.79,6.79l0,0C836.55,959.82,833.51,962.86,829.76,962.86z"/>
		</g>
	</g>
</g>
</svg>
