<?xml version="1.0" encoding="utf-8"?>
<!-- Generator: Adobe Illustrator 24.0.3, SVG Export Plug-In . SVG Version: 6.00 Build 0)  -->
<svg version="1.1" id="Livello_1" xmlns="http://www.w3.org/2000/svg" xmlns:xlink="http://www.w3.org/1999/xlink" x="0px" y="0px"
	 viewBox="0 0 448 154" style="enable-background:new 0 0 448 154;" xml:space="preserve">
<style type="text/css">
	.st0{fill:#FFFFFF;}
</style>
<g>
	<g>
		<path class="st0" d="M375.7,39c-2-1.8-4.5-2.7-7.3-2.5c-2.7,0.2-5.5,1.2-8.4,2.9c-2.9,1.7-6,4.6-9.6,8.8c-2.1,2.4-4,5.2-5.9,8.2
			c1.4-5.4,3.6-12.7,6.6-21.8c1.5-4.8,3.3-8.5,6.7-16.8c1.7-4.2-1.3-9.3-5.6-10.8l0,0c-4.2,7.4-7,15.8-10.4,26
			c-5.8,17.5-9.5,32.5-11,44.6l-0.1,0.9l9.3,3.1l0.3-1.1c2.9-9.3,6.5-17.1,10.8-23c4.1-5.8,7.9-8.8,11.1-9c1.3-0.1,2.4,0.2,3.3,1
			c0.9,0.8,1.4,1.8,1.5,3.1c0.3,4.9-1.2,10-4.6,15.3c-3.3,5.2-7.2,8-11.5,8.3c-0.6,0-1.5,0-2.7-0.2l-0.9-0.2l-3.3,7.2l1.2,0.4
			c1.7,0.6,3.4,0.8,5.2,0.8c0.4,0,0.8,0,1.2,0c7.3-0.5,13.9-5.2,19.6-13.8c5.6-8.5,8.2-16.6,7.7-24.1
			C378.9,43.3,377.7,40.8,375.7,39z"/>
		<path class="st0" d="M435.1,53.7c0,0-2.6,6.7-9.6,12.1c-0.3,0.2-1.1,0.7-1.3,0.8c0,0-0.2,0.1-1.1,0.1c-0.4,0-0.9-0.2-1.5-0.7
			c-0.6-0.5-0.9-1.1-0.9-1.9c-0.1-1.7,0.8-6.3,5.8-18.5l0.4-1l-7.1-3.6l-0.5,1.1C416.5,49,412.7,55,408,60.1
			c-4.6,5-8.5,7.7-11.7,7.9c-2.1,0.1-4.5-0.4-4.9-5.5c-0.3-4.3,2-8.8,6.8-13.6c4.9-4.9,10.8-8.4,17.5-10.3l5.7-1.7
			c1.4-0.5,2.3-1.9,2-3.4c-0.3-1.3-1.4-2.3-2.7-2.3l-1.1,0c-6.7,0.5-13.3,2.8-19.7,6.6c-6.4,3.9-11.6,8.7-15.5,14.4
			c-3.9,5.8-5.7,11.6-5.4,17.3c0.2,3.2,1.3,5.7,3.1,7.5c1.7,1.6,3.9,2.4,6.6,2.4c0.4,0,0.7,0,1.1,0c3.1-0.2,6.2-1.2,9.3-3
			c3.1-1.7,6.6-5,10.6-9.6l1-1.2c-0.2,1.5-0.3,2.8-0.2,4c0.4,5.5,3.3,8.1,8.6,7.8c2.6-0.2,5.9-1.4,8.8-3.8c2.9-2.4,4.7-5.6,5.4-7.6
			C436,59.5,435.1,53.7,435.1,53.7z"/>
		<path class="st0" d="M326,66.1c-1.6,2.7-3.8,5.2-3.9,5.3l-0.8,0.8c-0.4,0.4-0.6,0.6-0.7,0.7c-0.3,0.2-0.6,0.4-1,0.7
			c-0.3,0.2-0.5,0.3-0.8,0.4c-0.2,0.1-0.6,0.1-1.5,0.2c-0.6,0.1-1-0.4-1.4-0.8c-0.6-0.6-0.9-1.6-1-3c-0.1-0.9,0.4-3.9,4-15
			c3.7-11.5,4.3-13.5,4.4-14l0.2-0.9l-8.1-3l-0.4,1.1c-4,11.5-8.1,20.3-12.2,26.3c-5,7.1-8.3,8.8-10.1,8.9c-1.1,0.1-2.1-0.2-3-1
			c-0.9-0.7-1.4-1.8-1.5-3.1c-0.1-1.1,0.2-3.6,1.7-9.8c1.3-5,3.3-10.1,6.1-15.4l0.6-1.1l-7.6-2.7l-0.5,0.5c-1.1,1-3,3.7-7.1,15.3
			c-3,8.6-4.4,15.7-4,21.1c0.6,8.1,4.4,9.9,7.7,9.9c0.2,0,0.4,0,0.7,0c3.2-0.2,6.7-2.2,10.9-5.9c3-2.7,5.8-6.1,8.4-10.1
			c-0.1,1.9-0.1,3.6,0,5c0.2,2.8,1.1,5.1,2.7,6.8c1.7,1.7,3.8,2.5,6.5,2.4c2.5-0.2,5.3-1.6,8.1-4.2c2.8-2.6,4.8-5.7,6-9.2
			c0,0,2.1-5.6,0.3-11.5C328.5,60.5,327.6,63.4,326,66.1z"/>
	</g>
	<g>
		<path class="st0" d="M119,62.5l-0.5-0.7l-7.9,3.1l0.6,1.1c1.6,2.8,2.5,6.1,2.8,9.7c0.2,3.5-0.4,6.7-2,9.4c-1.5,2.6-3.5,4-6.3,4.2
			c-2.8,0.2-4.9-0.5-6.5-2.2c-1.6-1.7-2.5-4.2-2.7-7.2c-0.4-5.3,1.2-9.6,4.9-13.3c3.6-3.6,8.5-5.8,14.4-6.3L117,60
			c1-0.5,1.7-1.5,1.7-2.6c0-1.5-1.1-2.7-2.5-2.9l-0.9-0.1c-0.6,0-1.6,0-3,0.1c-7.4,0.5-14,4.1-19.5,10.5c-5.5,6.5-8,13.6-7.5,21.2
			c0.3,4.9,2,8.6,4.9,11.3c2.6,2.3,6,3.5,10,3.5c0.5,0,1,0,1.6-0.1c6.2-0.4,11.5-3.4,15.7-8.9c4.2-5.4,6-11.5,5.6-18
			C122.7,69.7,121.4,65.9,119,62.5z"/>
		<path class="st0" d="M175.6,72c0,0-1,2.9-2.5,5.5c-1.6,2.7-3.8,5.2-3.9,5.3l-0.8,0.8c-0.4,0.4-0.6,0.6-0.7,0.7
			c-0.3,0.2-0.6,0.4-1,0.7c-0.3,0.2-0.5,0.3-0.8,0.4c-0.2,0.1-0.6,0.1-1.5,0.2c-0.6,0.1-1-0.4-1.4-0.8c-0.6-0.6-0.9-1.6-1-3
			c-0.1-0.9,0.4-3.9,4-15c3.7-11.5,4.3-13.5,4.4-14l0.2-0.9l-8.1-3L162,50c-4,11.5-8.1,20.3-12.2,26.3c-5,7.1-8.3,8.8-10.1,8.9
			c-1.1,0.1-2.1-0.2-3-1c-0.9-0.7-1.4-1.8-1.5-3.1c-0.1-1.1,0.2-3.6,1.7-9.8c1.3-5,3.3-10.1,6.1-15.4l0.6-1.1L136,52l-0.5,0.5
			c-1.1,1-3,3.7-7.1,15.3c-3,8.6-4.4,15.7-4,21.1c0.6,8.1,4.4,9.9,7.7,9.9c0.2,0,0.4,0,0.7,0c3.2-0.2,6.7-2.2,10.9-5.9
			c3-2.7,5.8-6.1,8.4-10.1c-0.1,1.9-0.1,3.6,0,5c0.2,2.8,1.1,5.1,2.7,6.8c1.7,1.7,3.8,2.5,6.5,2.4c2.5-0.2,5.3-1.6,8.1-4.2
			c2.8-2.6,4.8-5.7,6-9.2C175.3,83.4,177.4,77.8,175.6,72z"/>
		<path class="st0" d="M215,56.9c-0.2-2.4-1-4.3-2.6-5.7c-1.6-1.4-3.5-2.1-5.7-1.9c-4.8,0.3-9.9,5.5-15.5,15.8
			c0.4-2.3,0.7-4.2,0.8-5.6c0.3-2.8,0.4-6.8,0.2-11.9l0-1.5l-8.7,3l0.1,0.9c0.6,9.1,0.1,16.8-1.5,22.9c-0.3,1.2-1.7,5.2-6.1,17.5
			l-0.4,1.1l8.8,3.2l0.4-0.9c1.3-2.7,3.1-7.2,5.6-13.6c2.4-6.3,4.5-11,6.3-14c1.7-2.8,3.5-4.2,5.4-4.4c0.9-0.1,1.5,0.1,1.9,0.4
			c0.4,0.3,0.6,0.8,0.6,1.5c0,0.6,0.1,3.6-1,6.8c-1.2,3.6-4.8,9-4.8,9s7.3-2.8,11-7.6C213.7,66.9,215.3,61.3,215,56.9z"/>
	</g>
	<path class="st0" d="M431.9,82L137.7,102c-24,1.3-59.2,2.2-63.6,1.8c-0.6-0.1-1.2-0.1-1.7-0.1c3.8-14.6,9.8-31.3,14.1-42
		c6.6-10.6,9.7-18.3,9.3-23.5c-0.1-1.5-0.6-2.6-1.5-3.5c-0.9-0.9-2.2-1.2-3.6-1.1c-1.6,0.1-3,1.2-4.3,3.3c-1.2,1.9-2.7,5.5-4.7,11.2
		C76.9,61.2,72,71.2,67.2,77.7c-4.7,6.3-9.8,9.6-15.1,10c-2.5,0.2-4.3-0.4-5.6-1.9c-1.4-1.5-2.2-4-2.4-7.3
		c-0.7-10.7,5.1-24.4,17.3-41c2.8-3.8,2.5-9.2-0.8-12.7l-0.7,0.7C52,32.8,45.1,42.6,39.5,54.8c-5.7,12.2-8.3,22.1-7.8,29.2
		c0.4,5.1,1.9,9.1,4.5,11.9c2.7,2.8,6.3,4.1,10.7,3.8c2.6-0.2,5.2-0.8,7.6-1.9c3.8-1.6,8.6-5.5,14.7-11.7c-0.4,1.3-0.9,2.8-1.4,4.6
		c-0.7,2.5-2,6-3,8.8c-0.7,1.9-1.2,3.4-1.6,4.4l-2.7,0.1c-13.2,0.9-24.5,4.3-33.6,9.9c-9.4,5.8-13.9,12.5-13.4,19.9
		c0.3,4.1,2.3,7.5,5.9,10c3.1,2.1,6.8,3.2,10.9,3.2c0.6,0,1.2,0,1.8-0.1c9.2-0.6,17.1-4.1,23.3-10.3c6-5.9,11-14.6,14.8-25.8
		c3.4,0.3,35.1-0.1,52.9-1.7l309.2-21c1.7-0.1,3-1.6,2.9-3.3C435.1,83.2,433.6,81.9,431.9,82z M52,128c-4.3,5.2-9.4,8-15.4,8.4
		c-2.4,0.2-4.5-0.3-6.1-1.4c-1.6-1-2.4-2.4-2.5-4.3c-0.3-4.6,2.8-8.8,9.1-12.6c6.3-3.7,14.3-6,23.7-6.8C59,117.5,56,123.1,52,128z"
		/>
	<path class="st0" d="M268.2,60.8c-2.4,12.3-8.5,18.6-18.7,19.3c-5.6,0.4-10-0.9-13.1-3.9c-3.1-3-5.1-7.2-5.3-12.6
		c-0.6-16.6,13.2-30.5,18.1-34.2c5.4-4,10.3-6.2,14.8-6.5c1.4-0.1,2.5,0.2,3.4,0.8c0.8,0.6,1.3,1.5,1.4,2.6
		c0.3,3.9-1.8,7.4-6.4,10.7c-2.8,2-6,3.5-9.4,4.5c-3.9,1.1-6.9,4.2-8,8.1l0,0.1c0,0,0,0,0,0c10-0.4,18.8-3.7,26.1-9.8
		c7.1-5.9,10.5-12.1,10.1-18.5c-0.2-3-1.3-5.4-3.2-7.1c-1.9-1.7-4.5-2.4-7.7-2.2v0c-6.2,0.4-13.7,3.6-22.2,9.5
		c-8.1,5.6-14.3,11.8-18.5,18.2c0,0-10,14.4-10,29.9c0,7.5,3.3,13.1,8.2,16.7c4.4,3.3,9.1,4.9,14,4.9c0.5,0,1,0,1.5-0.1
		c9.9-0.7,17.9-4.1,23.6-10.3c5.7-6.1,8.8-13,9.1-20.5l0.1-1.3l-7.6,0.5L268.2,60.8z"/>
</g>
</svg>
